<svg preserveAspectRatio="none" id="Layer_1" data-name="Layer 1" xmlns="http://www.w3.org/2000/svg" viewBox="0 0 395.33 542.46"><defs><style>.cls-1{fill:#1c3f8f;}</style></defs><path class="cls-1" d="M365.76,243.76c2.11-1.82,2.56-3.41,1.49-5.94-3.42-8.14-8.8-9.54-15.23-3.8s-6.47,5.79-12-.43c-5.72-6.46-7.85-6.64-13.47-1.16-4.55,4.43-4.59,5.39-.37,10.11,7.23,8.1,7.23,8.1-.82,15.29-4.89,4.37-5,5.87-.59,10.83a22.28,22.28,0,0,0,3,2.9c2.46,1.9,4.64,2.31,7.25-.32s5.38-7.22,8.78-6.94,5.54,5,7.92,8c2.21,2.79,4.43,2.87,7.22,1.42a15.76,15.76,0,0,0,6.22-6.06c1.41-2.32,1.42-4.07-.59-6.14-2.79-2.87-7.28-6.09-7.27-9.14C357.34,248.78,362.64,246.47,365.76,243.76Z" transform="translate(1.78 -188.66)"/><path class="cls-1" d="M393.07,280a18.55,18.55,0,0,0-6.58,15.15c.31,13.8,0,27.6-2.54,41.22-1.21,6.44-2.83,12.77-8.78,16.78-8.11,5.46-16.19,4.38-23.9-.63-9.66-6.28-17.9-14.24-25.56-22.82-18.7-21.33-31.83-45.46-37-73.58-3.09-16.83-1.76-32.82,10.32-46.2,9.43-10.46,21.87-15.21,35.4-17.68a45.91,45.91,0,0,0,11.34-3.55H18.32a20.09,20.09,0,0,0-20.1,20.09V711a20.09,20.09,0,0,0,20.1,20.09H373.47A20.09,20.09,0,0,0,393.56,711V279.53C393.39,279.67,393.23,279.82,393.07,280Z" transform="translate(1.78 -188.66)"/></svg>