<svg preserveAspectRatio="none" id="Layer_1" data-name="Layer 1" xmlns="http://www.w3.org/2000/svg" viewBox="0 0 395.33 542.46"><defs><style>.cls-1{fill:#36679b;}</style></defs><path class="cls-1" d="M371.7,272.29c-6.56-3.42-12.84-5.68-20.81-5.4-24.47.85-45.58-20.81-45.38-45.17a46.25,46.25,0,0,1,13.75-33.06h-14.8a57,57,0,0,0-9.9,24.71c-5.3,37,26.35,69.2,63.74,64.8,1.79-.21,3.54-.85,5.38,0,9.44,4.56,18.9,9.07,29.18,14a82.2,82.2,0,0,1-42.45,11.26,79.89,79.89,0,0,1-45.31-14.31c-2.24-1.52-4-1.14-6.18-.53l-38.37,10.86c-1.54.43-3.1.75-5.37,1.29,6.38-14.63,12.36-28.68,18.67-42.57a10.65,10.65,0,0,0,.26-8.9,81.36,81.36,0,0,1,1.9-60.64H18.32a20.09,20.09,0,0,0-20.1,20.09V711a20.09,20.09,0,0,0,20.1,20.09H373.47A20.09,20.09,0,0,0,393.56,711V283.61Q382.63,278,371.7,272.29Z" transform="translate(1.78 -188.66)"/></svg>