<svg preserveAspectRatio="none" id="Layer_1" data-name="Layer 1" xmlns="http://www.w3.org/2000/svg" viewBox="0 0 395.33 542.46"><defs><style>.cls-1{fill:#7f217c;}</style></defs><path class="cls-1" d="M345.67,310.05c-4,4.11-8.07,8.23-12.16,12.28a7.92,7.92,0,0,1-8.89,1.82q-35.47-12.58-71-25.1a17,17,0,0,0-4.88-1c-4.75-.25-7.3,1.39-8.95,5.84-3.29,8.89-1,18.74,5.57,24.35a10.92,10.92,0,0,0,3.34,2q38.85,14.18,77.67,28.4a2.77,2.77,0,0,0,3.41-.88q31.83-33.93,63.74-67.8V261.28q-3.57,3.63-7.15,7.27Q366,289.29,345.67,310.05Z" transform="translate(1.78 -188.66)"/><path class="cls-1" d="M359.37,257.66c1.06.32,2.15.58,2.82.76a9.53,9.53,0,0,0,7.64-2.76c1.29-1.34,2.58-2.67,3.86-4,3.54-3.72,3.08-5.63-1.78-7.17-6.14-1.94-12.3-3.8-18.45-5.71q-16-4.94-31.93-9.9c-4.85-1.5-9.17-1.07-12.51,3.25-.68.88-1.53,1.62-2.29,2.44-3.91,4.18-3.5,5.72,2.08,7.46Q334.09,249.87,359.37,257.66Z" transform="translate(1.78 -188.66)"/><path class="cls-1" d="M370.88,335.25q-17,18.08-34,36.15c-3.46,3.69-6,4.3-10.8,2.57q-40.39-14.78-80.82-29.51c-11.47-4.18-17.78-12.66-20.6-24.18-.36-1.47-.09-3.12-1.15-4.41l.78-12.62c1-.67,1-1.81,1.26-2.8a55.46,55.46,0,0,1,6.67-15.86c2.14-3.34,5.06-5.93,7.83-8.67q22.1-21.78,44.26-43.49c9.93-9.77,19.93-19.49,29.72-29.4,3.42-3.47,7-4.32,11.59-3q33.93,9.91,67.92,19.69v-11a20.09,20.09,0,0,0-20.09-20.09H18.32a20.09,20.09,0,0,0-20.1,20.09V711a20.09,20.09,0,0,0,20.1,20.09H373.47A20.09,20.09,0,0,0,393.56,711V311.13Z" transform="translate(1.78 -188.66)"/></svg>