<svg id="Layer_1" data-name="Layer 1" xmlns="http://www.w3.org/2000/svg" viewBox="0 0 856.9 274.6"><defs><style>.cls-1{fill:#2f54a2;}.cls-2{font-size:40.34px;}.cls-2,.cls-8,.cls-9{fill:#fff;}.cls-2,.cls-9{font-family:ProductSans-Regular, Product Sans;}.cls-3{letter-spacing:-0.07em;}.cls-4{letter-spacing:-0.02em;}.cls-5{letter-spacing:-0.01em;}.cls-6{letter-spacing:-0.06em;}.cls-7{letter-spacing:-0.03em;}.cls-9{font-size:20.47px;}.cls-10{letter-spacing:-0.01em;}.cls-11{letter-spacing:0em;}.cls-12{letter-spacing:-0.01em;}.cls-13{letter-spacing:-0.03em;}.cls-14{letter-spacing:-0.04em;}.cls-15{letter-spacing:-0.02em;}.cls-16{letter-spacing:-0.02em;}</style></defs><g id="BANNER_2" data-name="BANNER 2"><rect class="cls-1" width="856.9" height="274.58"/><text class="cls-2" transform="translate(413.9 125.3)">DISPL<tspan class="cls-3" x="102.5" y="0">A</tspan><tspan x="126.5" y="0">Y</tspan><tspan class="cls-4" x="150.4" y="0"> </tspan><tspan x="158.5" y="0">CA</tspan><tspan class="cls-5" x="214.8" y="0">S</tspan><tspan x="236.7" y="0">T </tspan><tspan x="25.2" y="48.4">E</tspan><tspan class="cls-5" x="47.1" y="48.4">S</tspan><tspan class="cls-6" x="69" y="48.4">T</tspan><tspan x="88.1" y="48.4">Á </tspan><tspan class="cls-5" x="123.9" y="48.4">N</tspan><tspan x="151.6" y="48.4">O</tspan><tspan class="cls-7" x="184.3" y="48.4"> </tspan><tspan x="191.9" y="48.4">AR</tspan></text><path class="cls-8" d="M907.5,0H876.9V42.8q14.6,11.9,27.7,33c15.2,24.4,20.6,46.5,16,66.2s-15.4,35.3-32.5,46.5a76.4,76.4,0,0,1-11.2,6.1v36.3a125,125,0,0,0,24.6-12.7c28.5-18.6,44-42.4,46.4-71.6l15.5,24.9,36.4-23.9Z" transform="translate(-876.9 0)"/><path class="cls-8" d="M1238.3,127.6l-38.7,3.6a160.4,160.4,0,0,1-64.4,143.4h57q3-3.6,5.7-7.2A200.6,200.6,0,0,0,1238.3,127.6Z" transform="translate(-876.9 0)"/><path class="cls-8" d="M1073.1,95.3c14-2.1,28-7.7,41.9-16.8q28.5-18.7,43.7-46.7a101.1,101.1,0,0,0,11-31.8h-42.3a50.1,50.1,0,0,1-1,6.6q-6.2,29.6-32.3,46.7t-57,10.7q-30-6.9-55.2-47.2A139.6,139.6,0,0,1,972.8,0H921l135.1,216,39-25.5-60.8-97.2C1046.1,96.8,1059,97.5,1073.1,95.3Z" transform="translate(-876.9 0)"/><path class="cls-8" d="M1733.8,274.6v-63a62.1,62.1,0,0,0-50.4,61v2Z" transform="translate(-876.9 0)"/><polygon class="cls-8" points="784 0 654.9 0 794.8 226 853.9 191.1 784 0"/><text class="cls-9" transform="translate(364.4 244.3)">O MEL<tspan class="cls-10" x="59.4" y="0">H</tspan><tspan class="cls-11" x="73.2" y="0">OR </tspan><tspan class="cls-10" x="106.1" y="0">P</tspan><tspan x="117.5" y="0">ODCA</tspan><tspan class="cls-12" x="176.8" y="0">S</tspan><tspan x="187.9" y="0">T</tspan><tspan class="cls-13" x="199" y="0"> </tspan><tspan x="202.9" y="0">SOBRE</tspan><tspan class="cls-14" x="265.9" y="0"> </tspan><tspan x="269.5" y="0">T</tspan><tspan class="cls-15" x="280.6" y="0">E</tspan><tspan x="291.3" y="0">C</tspan><tspan class="cls-10" x="306.2" y="0">N</tspan><tspan x="320.2" y="0">O</tspan><tspan class="cls-16" x="336.8" y="0">L</tspan><tspan class="cls-10" x="346.7" y="0">O</tspan><tspan x="363.1" y="0">GIA</tspan></text></g></svg>