<svg id="Layer_1" data-name="Layer 1" xmlns="http://www.w3.org/2000/svg" viewBox="0 0 857.5 274.6"><defs><style>.cls-1{fill:#ebe30c;}.cls-2{fill:#fff;}.cls-3{fill:#fefefe;}.cls-4{fill:#0c0807;}.cls-5{fill:#fdf0d3;}.cls-6{fill:#eb5f46;}.cls-7{fill:#f7ae44;}.cls-8{fill:#131210;}.cls-9{fill:#871240;}.cls-10{fill:#871340;}.cls-11{fill:#0c0705;}.cls-12{fill:#fdf1d3;}.cls-13{fill:#faeed0;}.cls-14{font-size:38.4px;fill:#791237;font-family:KarmaticArcade, Karmatic Arcade;}.cls-15{font-size:21.8px;fill:#fce9f3;font-family:MicrosoftTaiLe-Bold, Microsoft Tai Le;font-weight:700;}</style></defs><g id="Banner_1" data-name="Banner 1"><rect class="cls-1" width="857.5" height="274.58"/><polygon class="cls-2" points="857.5 0 857.5 274.6 620.8 274.6 743.8 0 857.5 0"/><path class="cls-3" d="M823.6,169.4q0,36.9.1,74c0,.7-.2.9-1,.9H723.5c-.8,0-.9-.2-.9-.9V95.1c0-.7.1-.9.9-.9h99.2c.8,0,1,.2,1,.9C823.6,119.9,823.6,144.6,823.6,169.4ZM793,188.7h.3c.8,1.8,1.3,3.8,2.1,5.7s2,6.8,3.3,10.1,1.3,3.7,1.9,5.6a2,2,0,0,0,1.5,1.4,3.7,3.7,0,0,0,2.7-.5c2.1-.8,2.7-1.9,1.9-4.1s-1.6-4.6-2.3-6.9-1.7-5.9-2.9-8.7-2.4-6.6-3.7-9.8-2.8-7.5-4.5-11.1a3.8,3.8,0,0,1-.2-2.1c0-.5.3-.3.5-.2a9.2,9.2,0,0,0,3.3.2,15.5,15.5,0,0,0,8.4-3c2.4-1.8,4.5-4.2,4-7.5a10.5,10.5,0,0,1,.3-5,1.3,1.3,0,0,0,.1-.6,1.4,1.4,0,0,1,.7-1.1,10,10,0,0,0,2.5-2.1c2.2-3,2.1-10.3-2.6-12.9-.4-.2-.6-.4-.5-.9a14.6,14.6,0,0,0-1.8-8.1,18.4,18.4,0,0,0-7.9-8.2,1.4,1.4,0,0,1-.7-1.1,14.3,14.3,0,0,0-1.3-4.9A24.5,24.5,0,0,0,790,103a20.9,20.9,0,0,0-9.2-3.9c-4.5-.5-9.6,1.8-11.4,5.4-.5.9-.9.8-1.6.3a20.1,20.1,0,0,0-5.2-2.3,17,17,0,0,0-10.9-.4l-3.6,1c-4.2,1.1-7.4,3.5-8.8,7.9a12.2,12.2,0,0,0-.6,5.4c.1.6-.1.8-.8,1-3.8,1.2-6.8,3.4-7.8,7.4a11.9,11.9,0,0,0,4.4,12.7c.2.1.6.1.5.5a7.3,7.3,0,0,0,.2,4.6,16.3,16.3,0,0,0,4.6,7.5,10.6,10.6,0,0,0,7.7,3.1c.7,0,1,.2,1.2,1,.9,4.3,3.3,8,6,11.5l.3.3a2.1,2.1,0,0,1,.4,3.2,7.2,7.2,0,0,0-1.2,2.3c-.9,2.4-1.7,4.9-2.8,7.2s-2.2,5.9-3.4,8.8-2.4,7-3.6,10.5l-2.1,6.8c-.8,2.7-.4,3.7,2.2,4.7s3.3.2,4.1-1.9,2.2-7.2,3.5-10.7,1.8-5.4,2.7-8.1a1.1,1.1,0,0,1,.8-1v17.9c0,2.4.2,4.7.1,7.1a68.3,68.3,0,0,1-.6,7.7,67.4,67.4,0,0,0-.1,14.2c.1,1.2.4,1.5,1.6,1.4h4.1c1,0,1.4-.4,1.3-1.3a54.6,54.6,0,0,0-.4-5.8,44.3,44.3,0,0,1,.2-5.2,60.3,60.3,0,0,0,.2-9.5c-.1-.5.1-.5.5-.5l4.2.3,16.9.2c2.1,0,2,0,2.1,2.1,0,5,.4,10.1.2,15.1-.1,1.1-.1,2.2-.2,3.3s.2,1.2,1.1,1.1h4.5c.9.1,1.2-.3,1.2-1.1a103,103,0,0,0,.1-13.6,74.6,74.6,0,0,1-.2-12.5C792.9,202.1,793,195.4,793,188.7Z" transform="translate(0.6)"/><path class="cls-4" d="M793,188.7c0,6.7-.1,13.4-.6,20.1a74.6,74.6,0,0,0,.2,12.5,103,103,0,0,1-.1,13.6c0,.8-.3,1.2-1.2,1.1h-4.5c-.9.1-1.1-.3-1.1-1.1s.1-2.2.2-3.3c.2-5-.2-10.1-.2-15.1-.1-2.1,0-2.1-2.1-2.1l-16.9-.2-4.2-.3c-.4,0-.6,0-.5.5a60.3,60.3,0,0,1-.2,9.5,44.3,44.3,0,0,0-.2,5.2,54.6,54.6,0,0,1,.4,5.8c.1.9-.3,1.3-1.3,1.3h-4.1c-1.2.1-1.5-.2-1.6-1.4a67.4,67.4,0,0,1,.1-14.2,68.3,68.3,0,0,0,.6-7.7c.1-2.4-.1-4.7-.1-7.1V187.8a1.1,1.1,0,0,0-.8,1c-.9,2.7-1.7,5.4-2.7,8.1s-2.1,7.2-3.5,10.7-1.8,2.8-4.1,1.9-3-2-2.2-4.7l2.1-6.8c1.2-3.5,2.2-7.1,3.6-10.5s2.1-5.9,3.4-8.8,1.9-4.8,2.8-7.2a7.2,7.2,0,0,1,1.2-2.3,2.1,2.1,0,0,0-.4-3.2l-.3-.3c-2.7-3.5-5.1-7.2-6-11.5-.2-.8-.5-1-1.2-1a10.6,10.6,0,0,1-7.7-3.1,16.3,16.3,0,0,1-4.6-7.5,7.3,7.3,0,0,1-.2-4.6c.1-.4-.3-.4-.5-.5a11.9,11.9,0,0,1-4.4-12.7c1-4,4-6.2,7.8-7.4.7-.2.9-.4.8-1a12.2,12.2,0,0,1,.6-5.4c1.4-4.4,4.6-6.8,8.8-7.9l3.6-1a17,17,0,0,1,10.9.4,20.1,20.1,0,0,1,5.2,2.3c.7.5,1.1.6,1.6-.3,1.8-3.6,6.9-5.9,11.4-5.4A20.9,20.9,0,0,1,790,103a24.5,24.5,0,0,1,8.1,9.9,14.3,14.3,0,0,1,1.3,4.9,1.4,1.4,0,0,0,.7,1.1,18.4,18.4,0,0,1,7.9,8.2,14.6,14.6,0,0,1,1.8,8.1c-.1.5.1.7.5.9,4.7,2.6,4.8,9.9,2.6,12.9a10,10,0,0,1-2.5,2.1,1.4,1.4,0,0,0-.7,1.1,1.3,1.3,0,0,1-.1.6,10.5,10.5,0,0,0-.3,5c.5,3.3-1.6,5.7-4,7.5a15.5,15.5,0,0,1-8.4,3,9.2,9.2,0,0,1-3.3-.2c-.2-.1-.5-.3-.5.2a3.8,3.8,0,0,0,.2,2.1c1.7,3.6,2.9,7.4,4.5,11.1s2.4,6.5,3.7,9.8,1.9,5.8,2.9,8.7,1.5,4.6,2.3,6.9.2,3.3-1.9,4.1a3.7,3.7,0,0,1-2.7.5,2,2,0,0,1-1.5-1.4c-.6-1.9-1.2-3.8-1.9-5.6s-2-6.8-3.3-10.1-1.3-3.9-2.1-5.7l-.3-1.1C792.9,188.1,792.8,188.4,793,188.7Zm-53.4-49.8a15,15,0,0,0,5.2,7.5,3.4,3.4,0,0,0,3,.9,23.8,23.8,0,0,0,13.3-9.1,35.8,35.8,0,0,0,2.5-4.2c1.1-2.1,2.5-2.5,4.6-1.5a11.6,11.6,0,0,1,2.8,2.6c1.1,1.1,1.9,2.2,3.1,3.2a2.9,2.9,0,0,0,3.7.3l2.6-1.7c.6-.4,1.2-.9,2-.4a2.1,2.1,0,0,1,.7,2.1c0,.4-.1.7.2,1.1a31.9,31.9,0,0,0,3.7,4.4,4.7,4.7,0,0,0,2.7,1.2c.6,0,1.3.1,1.5-.6a6.4,6.4,0,0,1,3.3-3.2,12.4,12.4,0,0,1,7.6-1c.8.1,1-.1,1.1-.8,1.3-5.6-.5-10.3-4.4-14.3-.1-.2-.3-.3-.4-.4s-.7-.3-1,.2a3.4,3.4,0,0,1-1.5,1.8,2,2,0,0,1-2.1.2,1.9,1.9,0,0,1-.9-1.8l.3-2.1a12,12,0,0,0-1.1-8.7,19,19,0,0,0-4.8-5.7,21.1,21.1,0,0,0-4.5-2.8,7.9,7.9,0,0,0-4.1-.7c-1.8.2-3.1,1.3-4.5,2.2s-1.2.9-.2,2l1.2,1.4a2.4,2.4,0,0,1,.3,2.8,2.3,2.3,0,0,1-2.7.8l-2.4-1.2-4.3-2.7a21.4,21.4,0,0,0-6.9-2.6,31.9,31.9,0,0,0-6.9-.3c-4.1-.1-7,2.7-7.5,6.7A20.4,20.4,0,0,0,746,123a4.2,4.2,0,0,1,.5,1.7,10.1,10.1,0,0,1-5.7-2.9.5.5,0,0,0-.7-.1c-1.8.9-3.4,1.9-3.9,4.1a8.6,8.6,0,0,0,.5,4.5c.7,2.1,2.3,3.7,3.5,5.5a7.3,7.3,0,0,0,1.7,1.8,5,5,0,0,1,1.1,1.3ZM788,172.6l-.8.5a19.4,19.4,0,0,1-7.8,3.3,1.6,1.6,0,0,0-1.4,1.2,4.4,4.4,0,0,1-4.2,3.1,4.3,4.3,0,0,1-4.2-3.3c-.2-1.7-1.2-2.2-2.5-2.6l-.9-.4a33.8,33.8,0,0,1-4.1-2.4c-.9-.6-1-.5-1,.5a36.9,36.9,0,0,0-.1,4.7c.3,10.4.5,20.9.5,31.3,0,.7.1,1,.9.8a99.9,99.9,0,0,1,23.8-.8c.5.1.7,0,.7-.5a24.5,24.5,0,0,1,.2-2.7l.9-23.2C788.1,179,788,175.9,788,172.6Zm-21.5-33.7c-.5.9-.8,1.8-1.3,2.5a24.7,24.7,0,0,1-6,6.5,17.1,17.1,0,0,1-4.2,2.8c-.5.2-.5.5-.4,1a7.5,7.5,0,0,0,.9,2.5,22.3,22.3,0,0,0,3.2,6.1,31.4,31.4,0,0,0,5.1,5.2,24.8,24.8,0,0,0,7.4,4.2,12.4,12.4,0,0,0,8.7.1,18.4,18.4,0,0,0,10.6-10.4c.5-1.2.7-2.6,1.1-3.9s.2-3.9-.2-5.9c-.1-.4-.3-.4-.6-.4a8.1,8.1,0,0,1-7.7-2.4,10.4,10.4,0,0,1-2.9-3.7c-4,2.5-8,1.4-11-1.3A15,15,0,0,1,766.5,138.9Zm32.1,13.7a10.8,10.8,0,0,1,0,1.8c-.1.6.2.7.7.6a6.3,6.3,0,0,0,1.9-.3,3.4,3.4,0,0,0,2.6-3.5,9,9,0,0,0-.4-2.8,3.8,3.8,0,0,0-4.5-2.7h-.7c-.6.1-.7.3-.6.9S798.7,150.5,798.6,152.6Zm5.7,7a19.1,19.1,0,0,1-3.3.6,9.3,9.3,0,0,1-3.3-.3.5.5,0,0,0-.7.4c-.3,1.2-.8,2.3-1.3,3.7C799,163.2,802.3,162.7,804.3,159.6Zm.8-18c1.7.9,2.4,2.7,3.6,4.2a7.8,7.8,0,0,0-.9-5.3c-.2-.3-.3-.6-.7-.2A8.6,8.6,0,0,1,805.1,141.6Zm-32,34.9c.8.8.8.8,1.3.1Z" transform="translate(0.6)"/><path class="cls-5" d="M793,188.7c-.2-.3-.1-.6,0-1.1l.3,1.1Z" transform="translate(0.6)"/><path class="cls-6" d="M739.6,138.9H743a5,5,0,0,0-1.1-1.3,7.3,7.3,0,0,1-1.7-1.8c-1.2-1.8-2.8-3.4-3.5-5.5a8.6,8.6,0,0,1-.5-4.5c.5-2.2,2.1-3.2,3.9-4.1a.5.5,0,0,1,.7.1,10.1,10.1,0,0,0,5.7,2.9,4.2,4.2,0,0,0-.5-1.7,20.4,20.4,0,0,1-1.2-8.5c.5-4,3.4-6.8,7.5-6.7a31.9,31.9,0,0,1,6.9.3,21.4,21.4,0,0,1,6.9,2.6l4.3,2.7,2.4,1.2a2.3,2.3,0,0,0,2.7-.8,2.4,2.4,0,0,0-.3-2.8l-1.2-1.4c-1-1.1-1-1.1.2-2s2.7-2,4.5-2.2a7.9,7.9,0,0,1,4.1.7,21.1,21.1,0,0,1,4.5,2.8,19,19,0,0,1,4.8,5.7,12,12,0,0,1,1.1,8.7l-.3,2.1a1.9,1.9,0,0,0,.9,1.8,2,2,0,0,0,2.1-.2,3.4,3.4,0,0,0,1.5-1.8c.3-.5.6-.4,1-.2s.3.2.4.4c3.9,4,5.7,8.7,4.4,14.3-.1.7-.3.9-1.1.8a12.4,12.4,0,0,0-7.6,1,6.4,6.4,0,0,0-3.3,3.2c-.2.7-.9.6-1.5.6a4.7,4.7,0,0,1-2.7-1.2,31.9,31.9,0,0,1-3.7-4.4c-.3-.4-.2-.7-.2-1.1a2.1,2.1,0,0,0-.7-2.1c-.8-.5-1.4,0-2,.4l-2.6,1.7a2.9,2.9,0,0,1-3.7-.3c-1.2-1-2-2.1-3.1-3.2a11.6,11.6,0,0,0-2.8-2.6c-2.1-1-3.5-.6-4.6,1.5a35.8,35.8,0,0,1-2.5,4.2,23.8,23.8,0,0,1-13.3,9.1,3.4,3.4,0,0,1-3-.9A15,15,0,0,1,739.6,138.9Z" transform="translate(0.6)"/><path class="cls-7" d="M788,172.6c0,3.3.1,6.4,0,9.5l-.9,23.2a24.5,24.5,0,0,0-.2,2.7c0,.5-.2.6-.7.5a99.9,99.9,0,0,0-23.8.8c-.8.2-.9-.1-.9-.8,0-10.4-.2-20.9-.5-31.3a36.9,36.9,0,0,1,.1-4.7c0-1,.1-1.1,1-.5a33.8,33.8,0,0,0,4.1,2.4l.9.4c1.3.4,2.3.9,2.5,2.6a4.3,4.3,0,0,0,4.2,3.3,4.4,4.4,0,0,0,4.2-3.1,1.6,1.6,0,0,1,1.4-1.2,19.4,19.4,0,0,0,7.8-3.3Z" transform="translate(0.6)"/><path class="cls-5" d="M766.5,138.9a15,15,0,0,0,2.7,2.9c3,2.7,7,3.8,11,1.3a10.4,10.4,0,0,0,2.9,3.7,8.1,8.1,0,0,0,7.7,2.4c.3,0,.5,0,.6.4.4,2,.8,3.9.2,5.9s-.6,2.7-1.1,3.9a18.4,18.4,0,0,1-10.6,10.4,12.4,12.4,0,0,1-8.7-.1,24.8,24.8,0,0,1-7.4-4.2,31.4,31.4,0,0,1-5.1-5.2,22.3,22.3,0,0,1-3.2-6.1,7.5,7.5,0,0,1-.9-2.5c-.1-.5-.1-.8.4-1a17.1,17.1,0,0,0,4.2-2.8,24.7,24.7,0,0,0,6-6.5C765.7,140.7,766,139.8,766.5,138.9Zm11.2,21.2c0-3.2-1.9-4.4-4.7-3a4.8,4.8,0,0,1-3.9.4,1.9,1.9,0,0,0-2.8,1.1,3.8,3.8,0,0,0,.4,2.1,8.8,8.8,0,0,0,4.8,3.9A4.6,4.6,0,0,0,777.7,160.1Zm1-10.9a3.8,3.8,0,0,0-.9-2.4,1.8,1.8,0,0,0-3.3.1,4.6,4.6,0,0,0,.1,4.4c.7,1.2,1.9,1.6,2.7.8A3.9,3.9,0,0,0,778.7,149.2Zm-15,0a4.6,4.6,0,0,0,.5,2,2.1,2.1,0,0,0,1.9,1.2c.9.1,1.4-.6,1.7-1.3a3.8,3.8,0,0,0-.1-3.7,2,2,0,0,0-3.1-.5A2.8,2.8,0,0,0,763.7,149.2Z" transform="translate(0.6)"/><path class="cls-5" d="M798.6,152.6c.1-2.1-.6-4-1-6s0-.8.6-.9h.7a3.8,3.8,0,0,1,4.5,2.7,9,9,0,0,1,.4,2.8,3.4,3.4,0,0,1-2.6,3.5,6.3,6.3,0,0,1-1.9.3c-.5.1-.8,0-.7-.6A10.8,10.8,0,0,0,798.6,152.6Z" transform="translate(0.6)"/><path class="cls-6" d="M804.3,159.6c-2,3.1-5.3,3.6-8.6,4.4.5-1.4,1-2.5,1.3-3.7a.5.5,0,0,1,.7-.4,9.3,9.3,0,0,0,3.3.3A19.1,19.1,0,0,0,804.3,159.6Z" transform="translate(0.6)"/><path class="cls-6" d="M805.1,141.6a8.6,8.6,0,0,0,2-1.3c.4-.4.5-.1.7.2a7.8,7.8,0,0,1,.9,5.3C807.5,144.3,806.8,142.5,805.1,141.6Z" transform="translate(0.6)"/><path class="cls-5" d="M773.1,176.5h1.3C773.9,177.3,773.9,177.3,773.1,176.5Z" transform="translate(0.6)"/><path class="cls-8" d="M777.7,160.1a4.6,4.6,0,0,1-6.2,4.5,8.8,8.8,0,0,1-4.8-3.9,3.8,3.8,0,0,1-.4-2.1,1.9,1.9,0,0,1,2.8-1.1,4.8,4.8,0,0,0,3.9-.4C775.8,155.7,777.7,156.9,777.7,160.1Zm-4.7-.8c-1.4.6-2.5,1.1-3.9.5a5.4,5.4,0,0,0,2.3,2.2C771.4,160.9,772.4,160.4,773,159.3Zm.7-.5v.3h2C775,157.9,774.3,158.8,773.7,158.8Z" transform="translate(0.6)"/><path class="cls-8" d="M778.7,149.2a3.9,3.9,0,0,1-1.4,2.9c-.8.8-2,.4-2.7-.8a4.6,4.6,0,0,1-.1-4.4,1.8,1.8,0,0,1,3.3-.1A3.8,3.8,0,0,1,778.7,149.2Z" transform="translate(0.6)"/><path class="cls-8" d="M763.7,149.2a2.8,2.8,0,0,1,.9-2.3,2,2,0,0,1,3.1.5,3.8,3.8,0,0,1,.1,3.7c-.3.7-.8,1.4-1.7,1.3a2.1,2.1,0,0,1-1.9-1.2A4.6,4.6,0,0,1,763.7,149.2Z" transform="translate(0.6)"/><path class="cls-5" d="M773,159.3c-.6,1.1-1.6,1.6-1.6,2.7a5.4,5.4,0,0,1-2.3-2.2C770.5,160.4,771.6,159.9,773,159.3Z" transform="translate(0.6)"/><path class="cls-3" d="M773.7,158.8c.6,0,1.3-.9,2,.3h-2Z" transform="translate(0.6)"/><rect class="cls-9" x="111.6" y="237.2" width="746" height="37.4"/><polygon class="cls-10" points="0 0 184.8 0.7 84.2 274.6 0 274.6 0 0"/><path class="cls-11" d="M73.7,274.6c3.2-8.8,6.3-17.5,9.5-26.2,1.7-4.6,3-9.3,5.4-13.6.9-1.7.3-3.6.4-5.7-6.7,1.7-13.1.4-19.3-2-8-3.2-13.7-8.6-15.7-17.3-.6-2.8-.7-5.5.9-8.1A1.4,1.4,0,0,0,55,200l-.2-.4c-1.2-2.5-1.2-5.5-2.2-8s-4.1-3.2-5.8-5.4c-7-9-4.6-24.7,4.9-30.8a2.2,2.2,0,0,0,1-2.2c-.3-16.5,7.3-28.6,20.7-37.4.9-.5,1.7-.8,1.9-2.1C76.8,98.1,85.5,87,97.4,77.9a37.9,37.9,0,0,1,17.5-7.7c11-1.5,21.1,3.4,26.3,13.1.9,1.6,1.5.7,2.3.2,7.3-4.6,15.1-7.7,23.9-8.1a27.9,27.9,0,0,1,14,2.4,33.1,33.1,0,0,0,4.5,1.2c14.3,3.5,22.8,15.4,21.7,30.7-.1,1.6.2,2.3,1.9,2.8,13.3,4,20.2,17,16.5,31-1.6,6.1-4.5,11.3-9.7,15.1a1.7,1.7,0,0,0-.8,2.1c2.3,11.1-6.9,27.4-18.1,32.5a19.8,19.8,0,0,1-9.3,1.8c-1.2,0-1.7.3-2,1.5a69.9,69.9,0,0,1-15,28.8,4.2,4.2,0,0,0-.8,4.8c4.5,8.7,6.9,18.2,10.5,27.3,2.3,5.6,4.3,11.4,6.4,17.2H158.3c-.2-8,.6-16,.5-23.9-.1-4.4-.3-8.7-.4-13.5a66.1,66.1,0,0,1-16.8,9.2c-.9.4-.8,1.1-.8,1.8a11.2,11.2,0,0,1-8.6,10.2c-4.1.8-8.1-1.8-10.3-6.6a11.5,11.5,0,0,1-.6-1.7,1.8,1.8,0,0,0-1.6-1.5,43.5,43.5,0,0,1-18.2-7.8c-.4-.2-.8-.9-1.4-.5s-.2,1-.2,1.5c0,8-.3,16,.2,24,.2,2.9.1,5.8.1,8.8ZM190.2,129.2c.4-1.2.6-2,.9-2.7a44.9,44.9,0,0,0,2.6-21.5c-.9-9.4-7.1-15-16.5-15h-6.3a38.1,38.1,0,0,0-16.6,3.5c-5.5,2.4-10.4,5.8-15.4,9.1a20,20,0,0,1-6.1,3.3,4.6,4.6,0,0,1-4.9-1.2,4.7,4.7,0,0,1-.9-4.8,16.1,16.1,0,0,1,2.6-4.6c.9-1.2,3.1-2.2,2.7-3.4s-2.3-2.2-3.5-3.2c-6.4-5.3-13.1-5.3-20-1.2a45.9,45.9,0,0,0-17.4,18.1,27.3,27.3,0,0,0-3,18.2c.4,2.5,1.1,5,1,7.6s-3,5.1-6.2,3.2a11.2,11.2,0,0,1-3.6-3.9c-.7-1.3-1.3-1.6-2.5-.4-9.3,9.5-13,20.7-10,33.8.3,1.6.9,1.7,2.4,1.5a24.9,24.9,0,0,1,18.4,3.5,9.8,9.8,0,0,1,4.6,5.4,2.7,2.7,0,0,0,2.6,2.1,5.7,5.7,0,0,0,4.3-.8c5.3-4.3,11-8.5,11.4-16.3.2-3.3,2.3-4.3,5.1-2.6s3.8,2.7,5.7,3.9c3.7,2.4,5.6,2.3,9-.6a37.1,37.1,0,0,0,5.9-6.6,42.3,42.3,0,0,1,6.3-6.4c3.1-2.4,8-1.3,9.6,1.9s2.6,5.3,4.1,7.9a52.2,52.2,0,0,0,29.2,23.8,7.8,7.8,0,0,0,8-1.3,36.8,36.8,0,0,0,11.2-16c.5-1.1.2-1.4-1-1.5a18.1,18.1,0,0,1-5.6-.4l3.2-3.7c4.5-5.6,9-11.3,11-18.4s-.5-13.4-7.3-17c-1.2-.6-2-.7-2.9.5C199.3,126.7,194.9,127.9,190.2,129.2Zm-73.1,42.4a29.7,29.7,0,0,1-10,11.7A15.5,15.5,0,0,1,94.8,186c-1.9-.4-2.3,0-2.5,1.7-2.3,18.1,4.5,32.1,19.2,42.5,7.4,5.2,15.7,6.1,24.3,3.1a51.9,51.9,0,0,0,17.1-10.1c9.8-8.3,16.6-18.4,19.6-31,.3-1,.7-2-.6-2.9C161.1,182.6,152,174.1,147,162,136.2,176.1,126,177.6,117.1,171.6ZM65.7,189.2c-.3,6.8,3.5,9.6,10.3,10,1,.1,1.3-.2,1.3-1.3a52,52,0,0,1,1.8-18.4c.4-1.2,0-1.5-1.2-1.8-6-1.1-9.5.9-11.4,6.7A16.6,16.6,0,0,0,65.7,189.2Zm17.8,30.4a56.2,56.2,0,0,1-3-8c-.4-1.4-1.2-1.3-2.3-1a17.9,17.9,0,0,1-9.2.1,44.5,44.5,0,0,1-4.5-1.3C67,214.6,74.4,218.6,83.5,219.6ZM62.9,168.3l-4.3-3c-1-.9-1.3-.4-1.8.5-1.6,3.7-2,7.6-1.7,12.3C57.2,173.9,59.4,170.7,62.9,168.3Zm69.4,80.6-2.9.2C130.8,250.6,130.8,250.6,132.3,248.9Z" transform="translate(0.6)"/><path class="cls-7" d="M100.2,274.6c0-3,.1-5.9-.1-8.8-.5-8-.2-16-.2-24,0-.5-.3-1.1.2-1.5s1,.3,1.4.5a43.5,43.5,0,0,0,18.2,7.8,1.8,1.8,0,0,1,1.6,1.5,11.5,11.5,0,0,0,.6,1.7c2.2,4.8,6.2,7.4,10.3,6.6a11.2,11.2,0,0,0,8.6-10.2c0-.7-.1-1.4.8-1.8a66.1,66.1,0,0,0,16.8-9.2c.1,4.8.3,9.1.4,13.5.1,7.9-.7,15.9-.5,23.9Z" transform="translate(0.6)"/><path class="cls-6" d="M190.2,129.2c4.7-1.3,9.1-2.5,12.1-6.2.9-1.2,1.7-1.1,2.9-.5,6.8,3.6,9.4,9.6,7.3,17s-6.5,12.8-11,18.4l-3.2,3.7a18.1,18.1,0,0,0,5.6.4c1.2.1,1.5.4,1,1.5a36.8,36.8,0,0,1-11.2,16,7.8,7.8,0,0,1-8,1.3A52.2,52.2,0,0,1,156.5,157c-1.5-2.6-2.8-5.2-4.1-7.9s-6.5-4.3-9.6-1.9a42.3,42.3,0,0,0-6.3,6.4,37.1,37.1,0,0,1-5.9,6.6c-3.4,2.9-5.3,3-9,.6-1.9-1.2-3.8-2.7-5.7-3.9s-4.9-.7-5.1,2.6c-.4,7.8-6.1,12-11.4,16.3a5.7,5.7,0,0,1-4.3.8,2.7,2.7,0,0,1-2.6-2.1,9.8,9.8,0,0,0-4.6-5.4,24.9,24.9,0,0,0-18.4-3.5c-1.5.2-2.1.1-2.4-1.5-3-13.1.7-24.3,10-33.8,1.2-1.2,1.8-.9,2.5.4a11.2,11.2,0,0,0,3.6,3.9c3.2,1.9,6,.4,6.2-3.2s-.6-5.1-1-7.6a27.3,27.3,0,0,1,3-18.2,45.9,45.9,0,0,1,17.4-18.1c6.9-4.1,13.6-4.1,20,1.2,1.2,1,3.1,1.9,3.5,3.2s-1.8,2.2-2.7,3.4a16.1,16.1,0,0,0-2.6,4.6,4.7,4.7,0,0,0,.9,4.8,4.6,4.6,0,0,0,4.9,1.2,20,20,0,0,0,6.1-3.3c5-3.3,9.9-6.7,15.4-9.1A38.1,38.1,0,0,1,170.9,90h6.3c9.4,0,15.6,5.6,16.5,15a44.9,44.9,0,0,1-2.6,21.5C190.8,127.2,190.6,128,190.2,129.2Z" transform="translate(0.6)"/><path class="cls-12" d="M117.1,171.6c8.9,6,19.1,4.5,29.9-9.6,5,12.1,14.1,20.6,24.9,27.3,1.3.9.9,1.9.6,2.9-3,12.6-9.8,22.7-19.6,31a51.9,51.9,0,0,1-17.1,10.1c-8.6,3-16.9,2.1-24.3-3.1C96.8,219.8,90,205.8,92.3,187.7c.2-1.7.6-2.1,2.5-1.7a15.5,15.5,0,0,0,12.3-2.7A29.7,29.7,0,0,0,117.1,171.6Zm15.1,50.2c5.8.1,13.8-6.3,15-11.7s-1.8-6.8-5.5-5.3-6.3.4-9.3-1.1a13,13,0,0,0-2.5-1c-2.3-.6-4.3-.1-5.6,1.8-2.5,3.7-2.5,7.6-.7,11.5A9.3,9.3,0,0,0,132.2,221.8Zm-11.6-35.9a8.1,8.1,0,0,0,1.9,5.8c1.9,2.2,4,2.2,5.9,0s2.8-8.9.4-12-4.4-2.4-6.3-.1A9.4,9.4,0,0,0,120.6,185.9Zm32.2-.3a7.1,7.1,0,0,0-.5-2.9c-.8-1.9-2-3.4-4.2-3.4s-3.6,1.3-4.4,3.2a8.9,8.9,0,0,0,.6,8.4c1.9,3.1,4.8,3.1,6.9.2A8.3,8.3,0,0,0,152.8,185.6Z" transform="translate(0.6)"/><path class="cls-13" d="M65.7,189.2a16.6,16.6,0,0,1,.8-4.8c1.9-5.8,5.4-7.8,11.4-6.7,1.2.3,1.6.6,1.2,1.8a52,52,0,0,0-1.8,18.4c0,1.1-.3,1.4-1.3,1.3C69.2,198.8,65.4,196,65.7,189.2Z" transform="translate(0.6)"/><path class="cls-6" d="M83.5,219.6c-9.1-1-16.5-5-19-10.2a44.5,44.5,0,0,0,4.5,1.3,17.9,17.9,0,0,0,9.2-.1c1.1-.3,1.9-.4,2.3,1A56.2,56.2,0,0,0,83.5,219.6Z" transform="translate(0.6)"/><path class="cls-6" d="M62.9,168.3c-3.5,2.4-5.7,5.6-7.8,9.8-.3-4.7.1-8.6,1.7-12.3.5-.9.8-1.4,1.8-.5Z" transform="translate(0.6)"/><path class="cls-13" d="M132.3,248.9c-1.5,1.7-1.5,1.7-2.9.2Z" transform="translate(0.6)"/><path class="cls-11" d="M132.2,221.8a9.3,9.3,0,0,1-8.6-5.8c-1.8-3.9-1.8-7.8.7-11.5,1.3-1.9,3.3-2.4,5.6-1.8a13,13,0,0,1,2.5,1c3,1.5,5.8,2.5,9.3,1.1s6.4,1.3,5.5,5.3S138,221.9,132.2,221.8Zm.6-12.3a9.4,9.4,0,0,1,3.4,5.8,16.3,16.3,0,0,0,5.3-5.2C138.1,211.7,135.6,210.1,132.8,209.5Zm-3.3-1.3a1.1,1.1,0,0,0-1.2,0,.5.5,0,0,0,.1.3A1,1,0,0,0,129.5,208.2Z" transform="translate(0.6)"/><path class="cls-11" d="M120.6,185.9a9.4,9.4,0,0,1,1.9-6.3c1.9-2.3,4.5-2.2,6.3.1s2.2,9-.4,12-4,2.2-5.9,0A8.1,8.1,0,0,1,120.6,185.9Z" transform="translate(0.6)"/><path class="cls-11" d="M152.8,185.6a8.3,8.3,0,0,1-1.6,5.5c-2.1,2.9-5,2.9-6.9-.2a8.9,8.9,0,0,1-.6-8.4c.8-1.9,2.2-3.3,4.4-3.2s3.4,1.5,4.2,3.4A7.1,7.1,0,0,1,152.8,185.6Z" transform="translate(0.6)"/><path class="cls-13" d="M132.8,209.5c2.8.6,5.3,2.2,8.7.6a16.3,16.3,0,0,1-5.3,5.2A9.4,9.4,0,0,0,132.8,209.5Z" transform="translate(0.6)"/><path class="cls-13" d="M129.5,208.2a1,1,0,0,1-1.1.3.5.5,0,0,1-.1-.3A1.1,1.1,0,0,1,129.5,208.2Z" transform="translate(0.6)"/><text class="cls-14" transform="translate(258.6 106.6)">EXTERMINANDO <tspan x="95.4" y="46.1">DROGAS</tspan></text><text class="cls-15" transform="translate(226.3 263.7)">CONFIRA NOSSO MAIS NOVO JOGO EM PRODUÇÃO</text></g></svg>