<?xml version="1.0" ?><svg xmlns="http://www.w3.org/2000/svg" xmlns:xlink="http://www.w3.org/1999/xlink" version="1.1" id="Layer_1" viewBox="0 0 48 48" enable-background="new 0 0 48 48" xml:space="preserve"><path d="M35,2H17c-0.2651367,0-0.5195313,0.1054688-0.7070313,0.2929688l-8,8C8.1054688,10.4804688,8,10.734375,8,11v30  c0,2.7568359,2.2431641,5,5,5h22c2.7568359,0,5-2.2431641,5-5V7C40,4.2431641,37.7568359,2,35,2z M38,41  c0,1.6542969-1.3457031,3-3,3H13c-1.6542969,0-3-1.3457031-3-3V11.4140625L17.4140625,4H35c1.6542969,0,3,1.3457031,3,3V41z M17,14  h-5c-0.5522461,0-1-0.4472656-1-1s0.4477539-1,1-1h5c0.5512695,0,1-0.4482422,1-1V6c0-0.5527344,0.4477539-1,1-1s1,0.4472656,1,1v5  C20,12.6542969,18.6542969,14,17,14z M22,21h-8c-0.5522461,0-1,0.4472656-1,1v8c0,0.5527344,0.4477539,1,1,1h8  c0.5522461,0,1-0.4472656,1-1v-8C23,21.4472656,22.5522461,21,22,21z M21,29h-6v-6h6V29z M34,9h-8c-0.5527344,0-1,0.4472656-1,1v8  c0,0.5527344,0.4472656,1,1,1h8c0.5527344,0,1-0.4472656,1-1v-8C35,9.4472656,34.5527344,9,34,9z M33,17h-6v-6h6V17z M23,38  c0,0.5527344-0.4477539,1-1,1h-8c-0.5522461,0-1-0.4472656-1-1s0.4477539-1,1-1h8C22.5522461,37,23,37.4472656,23,38z M23,34  c0,0.5527344-0.4477539,1-1,1h-8c-0.5522461,0-1-0.4472656-1-1s0.4477539-1,1-1h8C22.5522461,33,23,33.4472656,23,34z M35,38  c0,0.5527344-0.4472656,1-1,1h-8c-0.5527344,0-1-0.4472656-1-1s0.4472656-1,1-1h8C34.5527344,37,35,37.4472656,35,38z M35,34  c0,0.5527344-0.4472656,1-1,1h-8c-0.5527344,0-1-0.4472656-1-1s0.4472656-1,1-1h8C34.5527344,33,35,33.4472656,35,34z M35,30  c0,0.5527344-0.4472656,1-1,1h-8c-0.5527344,0-1-0.4472656-1-1s0.4472656-1,1-1h8C34.5527344,29,35,29.4472656,35,30z M23,18  c0,0.5527344-0.4477539,1-1,1h-8c-0.5522461,0-1-0.4472656-1-1s0.4477539-1,1-1h8C22.5522461,17,23,17.4472656,23,18z M35,26  c0,0.5527344-0.4472656,1-1,1h-8c-0.5527344,0-1-0.4472656-1-1s0.4472656-1,1-1h8C34.5527344,25,35,25.4472656,35,26z M35,22  c0,0.5527344-0.4472656,1-1,1h-8c-0.5527344,0-1-0.4472656-1-1s0.4472656-1,1-1h8C34.5527344,21,35,21.4472656,35,22z"/></svg>