<svg id="Layer_1" data-name="Layer 1" xmlns="http://www.w3.org/2000/svg" viewBox="0 0 372.19 251.28"><defs><style>.cls-1{font-size:116.25px;fill:#204a9a;font-family:ProductSans-Regular, Product Sans;}.cls-2{letter-spacing:0em;}.cls-3{letter-spacing:-0.01em;}.cls-4{letter-spacing:-0.01em;}.cls-5{fill:#204b99;}.cls-6{font-size:26px;fill:#fff;font-family:SegoeUI-Semilight, Segoe UI;font-weight:300;}.cls-7{letter-spacing:0.03em;}.cls-8{letter-spacing:-0.07em;}.cls-9{letter-spacing:-0.04em;}</style></defs><text class="cls-1" transform="translate(11.43 148.39)">di<tspan class="cls-2" x="92.53" y="0">s</tspan><tspan class="cls-3" x="144.84" y="0">p</tspan><tspan class="cls-2" x="210.18" y="0">l</tspan><tspan class="cls-4" x="233.31" y="0">a</tspan><tspan x="291.44" y="0">y</tspan></text><path class="cls-5" d="M0,0H372.19a0,0,0,0,1,0,0V29.77a9.45,9.45,0,0,1-9.45,9.45H9.45A9.45,9.45,0,0,1,0,29.77V0A0,0,0,0,1,0,0Z"/><path class="cls-5" d="M9.45,189.25H362.74a9.45,9.45,0,0,1,9.45,9.45v52.58a0,0,0,0,1,0,0H0a0,0,0,0,1,0,0V198.7A9.45,9.45,0,0,1,9.45,189.25Z"/><text class="cls-6" transform="translate(40.73 228.42)"><tspan class="cls-7">L</tspan><tspan x="12.82" y="0">ABOR</tspan><tspan class="cls-8" x="78.57" y="0">A</tspan><tspan class="cls-9" x="93.25" y="0">T</tspan><tspan x="105.54" y="0">ÓRIO DE JOGOS</tspan></text></svg>