<svg id="Layer_1" data-name="Layer 1" xmlns="http://www.w3.org/2000/svg" viewBox="0 0 362.28 251.28"><defs><style>.cls-1{fill:#2d4a9a;}</style></defs><path class="cls-1" d="M115.07,294.86v26.88q26.57,7.41,49,42.46,21.45,33.54,15,60.64c-4.26,18-14.4,32.25-30.42,42.5a67.49,67.49,0,0,1-33.6,10.94v33.93a117.2,117.2,0,0,0,46.12-17.63q40-25.59,43.49-65.51l14.52,22.7L253.27,430,166.83,294.86Z" transform="translate(-115.07 -294.86)"/><path class="cls-1" d="M476.63,411.68l-36.28,3.25A144.55,144.55,0,0,1,410.13,517.2,147.73,147.73,0,0,1,380,546.14h53.41c1.84-2.15,3.63-4.33,5.37-6.56A180.78,180.78,0,0,0,476.63,411.68Z" transform="translate(-115.07 -294.86)"/><path class="cls-1" d="M321.88,382.11c13.09-1.95,26.2-7.08,39.23-15.41Q387.86,349.59,402,324a89.94,89.94,0,0,0,10.35-29.14H372.74a50.24,50.24,0,0,1-.91,6q-5.82,27-30.28,42.74c-16.79,10.74-34.52,14-53.33,9.78s-36-18.56-51.76-43.17a130.64,130.64,0,0,1-8.52-15.39H179.49L306,492.58l36.5-23.36-56.94-89C296.63,383.44,308.72,384.09,321.88,382.11Z" transform="translate(-115.07 -294.86)"/></svg>