<svg id="Layer_1" data-name="Layer 1" xmlns="http://www.w3.org/2000/svg" viewBox="0 0 305.5 65.1"><defs><style>.cls-1{fill:none;stroke:#2d4a9a;stroke-miterlimit:10;stroke-width:5px;}.cls-2{fill:#2d4a9a;}.cls-3{fill:#fff;}</style></defs><g id="redes_sociais" data-name="redes sociais"><line class="cls-1" x1="305.5" y1="32.55" x2="21.44" y2="32.55"/><circle class="cls-2" cx="260.23" cy="32.55" r="32.55"/><circle class="cls-2" cx="184.66" cy="32.55" r="32.55"/><circle class="cls-2" cx="107.01" cy="32.55" r="32.55"/><circle class="cls-2" cx="32.55" cy="32.55" r="32.55"/><path class="cls-3" d="M179.54,433.65c0,3.4,0,6.8,0,10.2,0,.72-.2.89-.89.87q-3.55-.06-7.11,0c-.73,0-.87-.23-.87-.9,0-6.71,0-13.42,0-20.12,0-.94-.26-1.14-1.14-1.11-1.87.07-3.75,0-5.62,0-.57,0-.74-.15-.74-.73,0-2.37,0-4.74,0-7.11,0-.6.15-.81.78-.8,1.93,0,3.87,0,5.8,0,.77,0,.92-.25.91-1,0-2.21,0-4.43,0-6.64a10,10,0,0,1,7.46-9.72,10.8,10.8,0,0,1,2.76-.43,62.12,62.12,0,0,1,6.82.28c.43,0,.58.18.58.62,0,2.15,0,4.3,0,6.45,0,.58-.24.66-.72.65-1.5,0-3,0-4.49,0-2.32.12-3.51,1.25-3.59,3.47-.07,1.87,0,3.74,0,5.61,0,.63.32.62.76.62,2.34,0,4.68,0,7,0,.58,0,.76.13.68.73q-.51,3.7-1,7.41c-.06.53-.38.47-.72.47-1.93,0-3.87,0-5.8,0-.75,0-1,.15-1,1C179.57,426.92,179.54,430.28,179.54,433.65Z" transform="translate(-145.25 -387.95)"/><path class="cls-3" d="M272.89,407.8a8,8,0,0,0-8.34-8.35h-25.4a8.05,8.05,0,0,0-8.33,8.36c0,4.23,0,8.46,0,12.7s0,8.52,0,12.79a8.06,8.06,0,0,0,8.25,8.25h25.58a8,8,0,0,0,8.24-8.26Q272.9,420.54,272.89,407.8Zm-11.37-3.51c1,0,2,0,2.92,0v0c.94,0,1.88,0,2.82,0,.54,0,.76.13.75.7,0,1.92,0,3.83,0,5.75,0,.49-.1.7-.65.7-1.91,0-3.83,0-5.74,0-.48,0-.71-.08-.71-.64,0-1.94,0-3.89-.05-5.83C260.85,404.48,261,404.27,261.52,404.29Zm-9.67,8.8a7.41,7.41,0,1,1-7.44,7.43A7.41,7.41,0,0,1,251.85,413.09Zm16.92,20.48a4,4,0,0,1-4.21,3.9c-4.26,0-8.52,0-12.79,0H239.36a4.14,4.14,0,0,1-4.49-4.49c0-5.33,0-10.66,0-16,0-.68.16-.9.86-.87,1.52.05,3,.06,4.56,0,.79,0,.82.18.61.86a11.41,11.41,0,0,0,8.38,14.7,10.85,10.85,0,0,0,11-3.38,11,11,0,0,0,2.63-11.08c-.3-1.09-.33-1.08.84-1.08,1.49,0,3,0,4.47,0,.46,0,.65.12.65.61C268.79,422.36,268.84,428,268.77,433.57Z" transform="translate(-145.25 -387.95)"/><path class="cls-3" d="M352.88,407.41a15.92,15.92,0,0,1-2.67,3.17,13.29,13.29,0,0,1-1.63,1.37.52.52,0,0,0-.24.52,27.16,27.16,0,0,1-6.19,18,24.64,24.64,0,0,1-14.41,8.81,27.76,27.76,0,0,1-8.28.51,26.64,26.64,0,0,1-6.54-1.43,2.27,2.27,0,0,0-.25-.06c-1.12-.49-2.26-.93-3.32-1.52a12.14,12.14,0,0,1-1.59-.95.42.42,0,0,1,.42,0,20.93,20.93,0,0,0,6.11-.52,19.11,19.11,0,0,0,6.8-3.26c.05,0,.11,0,.14-.12a12.34,12.34,0,0,1-2.6-.51,9.27,9.27,0,0,1-5.85-5.52c-.2-.48-.18-.51.37-.43a9.1,9.1,0,0,0,3.61-.23,9.69,9.69,0,0,1-3-1.23,9.19,9.19,0,0,1-4.4-7.65c0-.32.05-.37.33-.22a9,9,0,0,0,3.85,1,9.39,9.39,0,0,1-3.87-5.68,9.23,9.23,0,0,1,1-6.7c.21,0,.26.22.36.34a26.46,26.46,0,0,0,14.08,8.65,29.71,29.71,0,0,0,4.49.69c.25,0,.33,0,.27-.3a9.28,9.28,0,0,1,7.45-11,9.08,9.08,0,0,1,8.25,2.51.56.56,0,0,0,.57.19,19.46,19.46,0,0,0,5.59-2.19,9.5,9.5,0,0,1-4,5.1,14.3,14.3,0,0,0,2.71-.51C351.26,408,352.05,407.67,352.88,407.41Z" transform="translate(-145.25 -387.95)"/><path class="cls-3" d="M421.55,418.9l-27.22-15.71a2.92,2.92,0,0,0-4.38,2.53v31.42a2.92,2.92,0,0,0,4.38,2.54L421.55,424a2.92,2.92,0,0,0,0-5.06l-27.22-15.71a2.92,2.92,0,0,0-4.38,2.53v31.42a2.92,2.92,0,0,0,4.38,2.54L421.55,424A2.92,2.92,0,0,0,421.55,418.9Z" transform="translate(-145.25 -387.95)"/></g></svg>