<svg id="Layer_1" data-name="Layer 1" xmlns="http://www.w3.org/2000/svg" viewBox="0 0 1088.4 734.82"><defs><style>.cls-1{font-size:339.95px;fill:#204a9a;font-family:ProductSans-Regular, Product Sans;}.cls-2{letter-spacing:0em;}.cls-3{letter-spacing:-0.01em;}.cls-4{letter-spacing:-0.01em;}.cls-5{fill:#204b99;}.cls-6{font-size:56.25px;fill:#fff;font-family:SegoeUI-Semilight, Segoe UI;font-weight:300;}.cls-7{letter-spacing:0.03em;}.cls-8{letter-spacing:-0.07em;}.cls-9{letter-spacing:-0.04em;}.cls-10{letter-spacing:-0.06em;}.cls-11{letter-spacing:0em;}.cls-12{letter-spacing:-0.03em;}.cls-13{letter-spacing:-0.08em;}</style></defs><text class="cls-1" transform="translate(33.43 433.95)">di<tspan class="cls-2" x="270.59" y="0">s</tspan><tspan class="cls-3" x="423.57" y="0">p</tspan><tspan class="cls-2" x="614.62" y="0">l</tspan><tspan class="cls-4" x="682.28" y="0">a</tspan><tspan x="852.25" y="0">y</tspan></text><path class="cls-5" d="M0,0H1088.4a0,0,0,0,1,0,0V105.25a9.45,9.45,0,0,1-9.45,9.45H9.45A9.45,9.45,0,0,1,0,105.25V0A0,0,0,0,1,0,0Z"/><path class="cls-5" d="M9.45,553.42H1079a9.45,9.45,0,0,1,9.45,9.45v172a0,0,0,0,1,0,0H0a0,0,0,0,1,0,0v-172A9.45,9.45,0,0,1,9.45,553.42Z"/><text class="cls-6" transform="translate(38.29 633.07)"><tspan class="cls-7">L</tspan><tspan x="27.74" y="0">ABOR</tspan><tspan class="cls-8" x="169.97" y="0">A</tspan><tspan class="cls-9" x="201.72" y="0">T</tspan><tspan x="228.31" y="0">ÓRIO DE NO</tspan><tspan class="cls-10" x="541.17" y="0">V</tspan><tspan class="cls-11" x="572.4" y="0">AS TECNO</tspan><tspan class="cls-12" x="828.36" y="0">L</tspan><tspan x="852.56" y="0">OGIAS</tspan><tspan x="286.69" y="67.5">E JOGOS DIGI</tspan><tspan class="cls-13" x="621.64" y="67.5">T</tspan><tspan x="646.52" y="67.5">AIS</tspan></text></svg>